<svg width="107" height="107" viewBox="0 0 107 107" fill="none" xmlns="http://www.w3.org/2000/svg">
<rect width="107" height="107" fill="#E7E8EA"/>
<path d="M65.6664 42.3333C61.8661 42.333 58.1561 43.4922 55.0321 45.6561C51.908 47.82 49.5185 50.8855 48.1827 54.4433L52.5554 56.0837C53.7104 53.0163 55.9046 50.4512 58.7561 48.835C61.6075 47.2188 64.9356 46.6539 68.1606 47.2388C71.3856 47.8236 74.3034 49.5211 76.4058 52.0356C78.5082 54.5501 79.662 57.7224 79.6664 61C79.6664 64.713 78.1914 68.274 75.5659 70.8995C72.9404 73.525 69.3794 75 65.6664 75H42.333C39.0272 75.0021 35.8274 73.8343 33.3 71.7034C30.7726 69.5725 29.0808 66.616 28.5242 63.3574C27.9675 60.0988 28.5819 56.7484 30.2586 53.8993C31.9353 51.0503 34.566 48.8864 37.685 47.791C37.4852 43.7604 38.7845 39.7986 41.3325 36.6692C43.8806 33.5398 47.4969 31.4645 51.4843 30.8434C55.4717 30.2223 59.548 31.0993 62.9271 33.3053C66.3063 35.5114 68.7491 38.8903 69.7847 42.7907C68.4331 42.4864 67.0518 42.333 65.6664 42.3333Z" fill="url(#paint0_linear_362_18)"/>
<defs>
<linearGradient id="paint0_linear_362_18" x1="53.9953" y1="30.6487" x2="53.9953" y2="75" gradientUnits="userSpaceOnUse">
<stop stop-color="#0ADCFC"/>
<stop offset="1" stop-color="#008DE9"/>
</linearGradient>
</defs>
</svg>
