<svg width="107" height="107" viewBox="0 0 107 107" fill="none" xmlns="http://www.w3.org/2000/svg">
<rect width="107" height="107" fill="#E7E8EA"/>
<path d="M72.333 34.6667H33.6663C30.9838 34.6667 28.833 36.8175 28.833 39.5V68.5C28.833 69.7819 29.3422 71.0113 30.2487 71.9177C31.1551 72.8241 32.3845 73.3333 33.6663 73.3333H72.333C73.6149 73.3333 74.8443 72.8241 75.7507 71.9177C76.6571 71.0113 77.1663 69.7819 77.1663 68.5V39.5C77.1663 38.2181 76.6571 36.9887 75.7507 36.0823C74.8443 35.1759 73.6149 34.6667 72.333 34.6667ZM65.083 66.0833H40.9163V61.25H65.083M65.083 56.4167H40.9163V51.5833H65.083M72.333 46.75H65.083V39.5H72.333" fill="url(#paint0_linear_363_22)"/>
<defs>
<linearGradient id="paint0_linear_363_22" x1="52.9997" y1="34.6667" x2="52.9997" y2="73.3333" gradientUnits="userSpaceOnUse">
<stop stop-color="#0ADCFC"/>
<stop offset="1" stop-color="#008DE9"/>
</linearGradient>
</defs>
</svg>
