<svg width="107" height="107" viewBox="0 0 107 107" fill="none" xmlns="http://www.w3.org/2000/svg">
<rect width="107" height="107" fill="#E7E8EA"/>
<path d="M23.5034 66.1646C24.4235 66.1646 25.1935 66.2544 25.8133 66.434C26.4428 66.6036 26.9126 66.888 27.2225 67.2871C27.5421 67.6762 27.7019 68.205 27.7019 68.8735C27.7019 69.2726 27.6389 69.6367 27.513 69.966C27.3871 70.2952 27.2031 70.5646 26.961 70.7741C26.7286 70.9837 26.4428 71.1184 26.1039 71.1782V71.2531C26.4525 71.3229 26.7673 71.4476 27.0482 71.6272C27.329 71.8068 27.5518 72.0662 27.7164 72.4054C27.8811 72.7447 27.9634 73.1937 27.9634 73.7524C27.9634 74.4009 27.8084 74.9596 27.4985 75.4286C27.1983 75.8875 26.7625 76.2417 26.191 76.4912C25.6196 76.7306 24.9417 76.8503 24.1572 76.8503H20.2783V66.1646H23.5034ZM23.7504 70.4C24.3896 70.4 24.8303 70.2952 25.0724 70.0857C25.3242 69.8762 25.4501 69.5719 25.4501 69.1728C25.4501 68.7637 25.3049 68.4694 25.0143 68.2898C24.7238 68.1102 24.2637 68.0204 23.6342 68.0204H22.472V70.4H23.7504ZM22.472 72.1959V74.9796H23.9102C24.5688 74.9796 25.0288 74.8499 25.2903 74.5905C25.5518 74.3211 25.6826 73.9669 25.6826 73.5279C25.6826 73.2585 25.6245 73.024 25.5082 72.8245C25.4017 72.6249 25.2128 72.4703 24.9417 72.3605C24.6705 72.2508 24.3025 72.1959 23.8376 72.1959H22.472Z" fill="url(#paint0_linear_459_476)"/>
<path d="M39.4529 71.4925C39.4529 72.3206 39.3512 73.0739 39.1478 73.7524C38.9541 74.4209 38.6539 74.9995 38.2471 75.4884C37.85 75.9773 37.3367 76.3515 36.7072 76.6109C36.0873 76.8703 35.3561 77 34.5135 77C33.6709 77 32.9349 76.8703 32.3053 76.6109C31.6855 76.3415 31.1722 75.9673 30.7654 75.4884C30.3683 74.9995 30.0681 74.4159 29.8647 73.7374C29.671 73.059 29.5741 72.3057 29.5741 71.4776C29.5741 70.3701 29.7485 69.4073 30.0971 68.5891C30.4555 67.771 30.9978 67.1374 31.7242 66.6884C32.4603 66.2295 33.3949 66 34.528 66C35.6515 66 36.5764 66.2295 37.3028 66.6884C38.0292 67.1374 38.5667 67.776 38.9154 68.6041C39.2737 69.4222 39.4529 70.385 39.4529 71.4925ZM31.884 71.4925C31.884 72.2408 31.976 72.8844 32.16 73.4231C32.3441 73.9619 32.6298 74.376 33.0172 74.6653C33.4046 74.9546 33.9034 75.0993 34.5135 75.0993C35.143 75.0993 35.6467 74.9546 36.0244 74.6653C36.4118 74.376 36.6926 73.9619 36.867 73.4231C37.051 72.8844 37.143 72.2408 37.143 71.4925C37.143 70.3651 36.9396 69.4821 36.5328 68.8435C36.1261 68.205 35.4578 67.8857 34.528 67.8857C33.9082 67.8857 33.4046 68.0304 33.0172 68.3197C32.6298 68.6091 32.3441 69.0231 32.16 69.5619C31.976 70.1007 31.884 70.7442 31.884 71.4925Z" fill="url(#paint1_linear_459_476)"/>
<path d="M50.7974 76.8503H48.0081L43.4901 68.7687H43.432C43.4416 69.0181 43.4513 69.2726 43.461 69.532C43.4707 69.7814 43.4804 70.0358 43.4901 70.2952C43.5094 70.5447 43.524 70.7991 43.5336 71.0585C43.5433 71.3079 43.553 71.5624 43.5627 71.8218V76.8503H41.6015V66.1646H44.3762L48.8798 74.1714H48.9234C48.9137 73.922 48.904 73.6776 48.8943 73.4381C48.8846 73.1887 48.8749 72.9442 48.8653 72.7048C48.8653 72.4553 48.8604 72.2109 48.8507 71.9714C48.841 71.722 48.8314 71.4726 48.8217 71.2231V66.1646H50.7974V76.8503Z" fill="url(#paint2_linear_459_476)"/>
<path d="M59.3901 76.8503H53.4193V66.1646H59.3901V68.0204H55.613V70.3701H59.1286V72.2258H55.613V74.9796H59.3901V76.8503Z" fill="url(#paint3_linear_459_476)"/>
<path d="M64.7736 66.1646C65.6937 66.1646 66.4637 66.2544 67.0835 66.434C67.713 66.6036 68.1828 66.888 68.4927 67.2871C68.8123 67.6762 68.9721 68.205 68.9721 68.8735C68.9721 69.2726 68.9091 69.6367 68.7832 69.966C68.6573 70.2952 68.4733 70.5646 68.2312 70.7741C67.9987 70.9837 67.713 71.1184 67.3741 71.1782V71.2531C67.7227 71.3229 68.0375 71.4476 68.3183 71.6272C68.5992 71.8068 68.822 72.0662 68.9866 72.4054C69.1513 72.7447 69.2336 73.1937 69.2336 73.7524C69.2336 74.4009 69.0786 74.9596 68.7687 75.4286C68.4685 75.8875 68.0326 76.2417 67.4612 76.4912C66.8898 76.7306 66.2118 76.8503 65.4274 76.8503H61.5485V66.1646H64.7736ZM65.0206 70.4C65.6598 70.4 66.1005 70.2952 66.3426 70.0857C66.5944 69.8762 66.7203 69.5719 66.7203 69.1728C66.7203 68.7637 66.575 68.4694 66.2845 68.2898C65.9939 68.1102 65.5339 68.0204 64.9044 68.0204H63.7422V70.4H65.0206ZM63.7422 72.1959V74.9796H65.1804C65.839 74.9796 66.299 74.8499 66.5605 74.5905C66.822 74.3211 66.9528 73.9669 66.9528 73.5279C66.9528 73.2585 66.8946 73.024 66.7784 72.8245C66.6719 72.6249 66.483 72.4703 66.2119 72.3605C65.9407 72.2508 65.5726 72.1959 65.1078 72.1959H63.7422Z" fill="url(#paint4_linear_459_476)"/>
<path d="M80.7231 71.4925C80.7231 72.3206 80.6214 73.0739 80.418 73.7524C80.2243 74.4209 79.924 74.9995 79.5173 75.4884C79.1202 75.9773 78.6069 76.3515 77.9774 76.6109C77.3575 76.8703 76.6263 77 75.7837 77C74.9411 77 74.205 76.8703 73.5755 76.6109C72.9557 76.3415 72.4424 75.9673 72.0356 75.4884C71.6385 74.9995 71.3383 74.4159 71.1349 73.7374C70.9412 73.059 70.8443 72.3057 70.8443 71.4776C70.8443 70.3701 71.0187 69.4073 71.3673 68.5891C71.7257 67.771 72.268 67.1374 72.9944 66.6884C73.7305 66.2295 74.6651 66 75.7982 66C76.9217 66 77.8466 66.2295 78.573 66.6884C79.2994 67.1374 79.8369 67.776 80.1855 68.6041C80.5439 69.4222 80.7231 70.385 80.7231 71.4925ZM73.1542 71.4925C73.1542 72.2408 73.2462 72.8844 73.4302 73.4231C73.6142 73.9619 73.9 74.376 74.2874 74.6653C74.6748 74.9546 75.1735 75.0993 75.7837 75.0993C76.4132 75.0993 76.9168 74.9546 77.2946 74.6653C77.682 74.376 77.9628 73.9619 78.1372 73.4231C78.3212 72.8844 78.4132 72.2408 78.4132 71.4925C78.4132 70.3651 78.2098 69.4821 77.803 68.8435C77.3963 68.205 76.728 67.8857 75.7982 67.8857C75.1784 67.8857 74.6748 68.0304 74.2874 68.3197C73.9 68.6091 73.6142 69.0231 73.4302 69.5619C73.2462 70.1007 73.1542 70.7442 73.1542 71.4925Z" fill="url(#paint5_linear_459_476)"/>
<path d="M82.8717 76.8503V66.1646H85.0653V74.9796H89.2783V76.8503H82.8717Z" fill="url(#paint6_linear_459_476)"/>
<path fill-rule="evenodd" clip-rule="evenodd" d="M49.3586 37.3014C49.3586 33.8287 52.2516 31 55.8071 31C59.3627 31 62.2557 33.8287 62.2557 37.3053C62.2791 42.3811 55.8071 46.7632 55.8071 46.7632C55.8033 46.7606 55.798 46.7569 55.7912 46.7523C55.3682 46.4606 49.3356 42.3014 49.3586 37.3014ZM52.5829 37.3053C52.5829 39.0471 54.0257 40.4579 55.8071 40.4579C57.5886 40.4579 59.0314 39.0471 59.0314 37.3053C59.0314 35.5635 57.5886 34.1526 55.8071 34.1526C54.0257 34.1526 52.5829 35.5635 52.5829 37.3053ZM30.592 44.4288H42.3528V59.8052C40.8013 60.3316 39.1805 60.7471 37.4905 61.0519C35.8282 61.3567 33.9304 61.509 31.7971 61.509C28.8604 61.509 26.3531 60.9272 24.2752 59.7636C22.225 58.6 20.6597 56.8823 19.5792 54.6105C18.5264 52.3386 18 49.5404 18 46.2158C18 43.1129 18.5957 40.4255 19.787 38.1536C21.006 35.8818 22.7653 34.1226 25.0648 32.8758C27.3643 31.6291 30.1764 31.0057 33.501 31.0057C35.0802 31.0057 36.6317 31.172 38.1555 31.5044C39.6792 31.8369 41.0645 32.2802 42.3112 32.8343L40.2333 37.8627C39.3191 37.3918 38.2801 37.0039 37.1165 36.6991C35.9529 36.3944 34.7339 36.242 33.4594 36.242C31.6309 36.242 30.0379 36.6576 28.6803 37.4887C27.3505 38.3199 26.3115 39.4973 25.5635 41.0211C24.8432 42.5172 24.483 44.2903 24.483 46.3405C24.483 48.2799 24.7462 49.9976 25.2726 51.4936C25.799 52.9897 26.6301 54.1672 27.766 55.026C28.902 55.8572 30.3842 56.2728 32.2127 56.2728C32.8222 56.2728 33.3486 56.2589 33.7919 56.2312C34.2629 56.1758 34.6923 56.1204 35.0802 56.065C35.4681 55.9819 35.8421 55.9126 36.2022 55.8572V49.6651H30.592V44.4288ZM62.5761 61.0935H49.0699V57.5195L52.6854 55.8572V46.7632L55.8071 48.9586L58.9606 46.7632V55.8572L62.5761 57.5195V61.0935ZM85.9178 57.4364C86.7767 56.1342 87.2061 54.6105 87.2061 52.865C87.2061 51.3136 86.9152 50.0114 86.3334 48.9586C85.7516 47.9058 84.9205 46.9916 83.84 46.2158C82.7872 45.4401 81.4989 44.692 79.9751 43.9717C78.7284 43.3622 77.6894 42.8358 76.8583 42.3925C76.0271 41.9492 75.4038 41.4921 74.9882 41.0211C74.5726 40.5224 74.3648 39.9268 74.3648 39.2341C74.3648 38.6246 74.5033 38.0982 74.7804 37.655C75.0851 37.2117 75.5146 36.8654 76.0687 36.616C76.6228 36.3667 77.2877 36.242 78.0634 36.242C79.1994 36.242 80.3076 36.3944 81.3881 36.6991C82.4685 37.0039 83.6876 37.4333 85.0451 37.9874L87.0814 33.0836C85.5577 32.4187 84.0893 31.9061 82.6763 31.546C81.2911 31.1858 79.8227 31.0057 78.2712 31.0057C76.2211 31.0057 74.4341 31.3382 72.9103 32.0031C71.4142 32.668 70.2506 33.6377 69.4195 34.9121C68.616 36.1589 68.2143 37.6688 68.2143 39.4419C68.2143 40.7995 68.4498 41.9631 68.9208 42.9328C69.3917 43.9024 69.9874 44.7336 70.7077 45.4262C71.4558 46.0912 72.2315 46.6591 73.035 47.1301C73.8384 47.5734 74.5865 47.9612 75.2791 48.2937C76.3873 48.8201 77.3708 49.3188 78.2297 49.7898C79.0885 50.2331 79.7673 50.7179 80.266 51.2443C80.7924 51.7707 81.0556 52.4079 81.0556 53.1559C81.0556 53.7655 80.9032 54.3057 80.5985 54.7767C80.3214 55.2477 79.8643 55.6217 79.2271 55.8988C78.6175 56.1758 77.8002 56.3143 76.7752 56.3143C75.2791 56.3143 73.7691 56.065 72.2454 55.5663C70.7493 55.0399 69.2948 54.4719 67.8818 53.8624V59.7221C68.6853 60.1099 69.5303 60.4424 70.4168 60.7194C71.3311 60.9688 72.2731 61.1627 73.2428 61.3012C74.2401 61.4398 75.2514 61.509 76.2765 61.509C78.6037 61.509 80.5708 61.1627 82.1777 60.4701C83.8123 59.7498 85.059 58.7385 85.9178 57.4364Z" fill="url(#paint7_linear_459_476)"/>
<defs>
<linearGradient id="paint0_linear_459_476" x1="54.7783" y1="66" x2="54.7783" y2="77" gradientUnits="userSpaceOnUse">
<stop stop-color="#0ADCFC"/>
<stop offset="1" stop-color="#008DE9"/>
</linearGradient>
<linearGradient id="paint1_linear_459_476" x1="54.7783" y1="66" x2="54.7783" y2="77" gradientUnits="userSpaceOnUse">
<stop stop-color="#0ADCFC"/>
<stop offset="1" stop-color="#008DE9"/>
</linearGradient>
<linearGradient id="paint2_linear_459_476" x1="54.7783" y1="66" x2="54.7783" y2="77" gradientUnits="userSpaceOnUse">
<stop stop-color="#0ADCFC"/>
<stop offset="1" stop-color="#008DE9"/>
</linearGradient>
<linearGradient id="paint3_linear_459_476" x1="54.7783" y1="66" x2="54.7783" y2="77" gradientUnits="userSpaceOnUse">
<stop stop-color="#0ADCFC"/>
<stop offset="1" stop-color="#008DE9"/>
</linearGradient>
<linearGradient id="paint4_linear_459_476" x1="54.7783" y1="66" x2="54.7783" y2="77" gradientUnits="userSpaceOnUse">
<stop stop-color="#0ADCFC"/>
<stop offset="1" stop-color="#008DE9"/>
</linearGradient>
<linearGradient id="paint5_linear_459_476" x1="54.7783" y1="66" x2="54.7783" y2="77" gradientUnits="userSpaceOnUse">
<stop stop-color="#0ADCFC"/>
<stop offset="1" stop-color="#008DE9"/>
</linearGradient>
<linearGradient id="paint6_linear_459_476" x1="54.7783" y1="66" x2="54.7783" y2="77" gradientUnits="userSpaceOnUse">
<stop stop-color="#0ADCFC"/>
<stop offset="1" stop-color="#008DE9"/>
</linearGradient>
<linearGradient id="paint7_linear_459_476" x1="52.6031" y1="31" x2="52.6031" y2="61.509" gradientUnits="userSpaceOnUse">
<stop stop-color="#0ADCFC"/>
<stop offset="1" stop-color="#008DE9"/>
</linearGradient>
</defs>
</svg>
