<svg width="107" height="107" viewBox="0 0 107 107" fill="none" xmlns="http://www.w3.org/2000/svg">
<rect width="107" height="107" fill="#E7E8EA"/>
<g clip-path="url(#clip0_362_5)" filter="url(#filter0_i_362_5)">
<path d="M39.8369 39.6827V33.9609C39.8369 28.5339 43.9273 24.1202 48.9545 24.1202H57.3314C62.3586 24.1202 66.449 28.5339 66.449 33.9609H70.2663C70.2663 26.2628 64.4633 20 57.3314 20H48.9545C41.824 20 36.0195 26.2628 36.0195 33.9609V39.6827H39.8369Z" fill="url(#paint0_linear_362_5)"/>
<path d="M26 39.6827V41.5877C26.0007 42.3945 26.273 43.1776 26.7734 43.8113C27.2737 44.445 27.9729 44.8924 28.7587 45.0818C28.7587 45.1167 28.7587 45.1502 28.7587 45.1852V66.1034H44.8374C45.2359 64.1992 46.2791 62.4899 47.7916 61.2628C49.3041 60.0358 51.1937 59.3658 53.1429 59.3655V59.3655C55.0172 59.3657 56.8387 59.9854 58.323 61.1277C59.8073 62.27 60.8708 63.8708 61.3475 65.6799H77.5326V45.1852C77.5326 45.1502 77.5326 45.1167 77.5326 45.0818C78.3187 44.8927 79.0182 44.4454 79.5188 43.8117C80.0194 43.178 80.292 42.3947 80.2927 41.5877V39.6827H26ZM75.0904 55.3445H73.0754V57.6716C73.0754 57.7828 73.0311 57.8894 72.9523 57.968C72.8735 58.0467 72.7667 58.0908 72.6553 58.0908H72.2351C72.1237 58.0908 72.0169 58.0467 71.9381 57.968C71.8593 57.8894 71.815 57.7828 71.815 57.6716V55.3445H70.1108V57.6716C70.1108 57.7828 70.0666 57.8894 69.9878 57.968C69.909 58.0467 69.8021 58.0908 69.6907 58.0908H69.2706C69.1592 58.0908 69.0523 58.0467 68.9736 57.968C68.8948 57.8894 68.8505 57.7828 68.8505 57.6716V55.3445H67.1379V57.6716C67.1379 57.7828 67.0936 57.8894 67.0149 57.968C66.9361 58.0467 66.8292 58.0908 66.7178 58.0908H66.2977C66.1863 58.0908 66.0794 58.0467 66.0006 57.968C65.9218 57.8894 65.8776 57.7828 65.8776 57.6716V55.3445H64.1692V57.6716C64.1692 57.7828 64.1249 57.8894 64.0461 57.968C63.9673 58.0467 63.8605 58.0908 63.7491 58.0908H63.329C63.2175 58.0908 63.1107 58.0467 63.0319 57.968C62.9531 57.8894 62.9089 57.7828 62.9089 57.6716V55.3445H61.2004V57.6716C61.2004 57.7828 61.1562 57.8894 61.0774 57.968C60.9986 58.0467 60.8918 58.0908 60.7803 58.0908H60.3602C60.2488 58.0908 60.142 58.0467 60.0632 57.968C59.9844 57.8894 59.9401 57.7828 59.9401 57.6716V55.3445H58.2317V57.6716C58.2317 57.7828 58.1874 57.8894 58.1087 57.968C58.0299 58.0467 57.923 58.0908 57.8116 58.0908H57.3915C57.2801 58.0908 57.1732 58.0467 57.0944 57.968C57.0157 57.8894 56.9714 57.7828 56.9714 57.6716V55.3445H55.2672V57.6716C55.2672 57.7828 55.2229 57.8894 55.1441 57.968C55.0654 58.0467 54.9585 58.0908 54.8471 58.0908H54.427C54.3156 58.0908 54.2087 58.0467 54.1299 57.968C54.0511 57.8894 54.0069 57.7828 54.0069 57.6716V55.3445H52.2943V57.6716C52.2943 57.7828 52.25 57.8894 52.1712 57.968C52.0924 58.0467 51.9856 58.0908 51.8741 58.0908H51.454C51.3426 58.0908 51.2358 58.0467 51.157 57.968C51.0782 57.8894 51.0339 57.7828 51.0339 57.6716V55.3445H49.3255V57.6716C49.3255 57.7828 49.2813 57.8894 49.2025 57.968C49.1237 58.0467 49.0168 58.0908 48.9054 58.0908H48.4853C48.3739 58.0908 48.267 58.0467 48.1883 57.968C48.1095 57.8894 48.0652 57.7828 48.0652 57.6716V55.3445H46.3568V57.6716C46.3568 57.7828 46.3125 57.8894 46.2337 57.968C46.155 58.0467 46.0481 58.0908 45.9367 58.0908H45.5166C45.4052 58.0908 45.2983 58.0467 45.2195 57.968C45.1407 57.8894 45.0965 57.7828 45.0965 57.6716V55.3445H43.3881V57.6716C43.3881 57.7828 43.3438 57.8894 43.265 57.968C43.1862 58.0467 43.0794 58.0908 42.968 58.0908H42.5479C42.4364 58.0908 42.3296 58.0467 42.2508 57.968C42.172 57.8894 42.1278 57.7828 42.1278 57.6716V55.3445H40.4235V57.6716C40.4235 57.7828 40.3793 57.8894 40.3005 57.968C40.2217 58.0467 40.1149 58.0908 40.0034 58.0908H39.5833C39.4719 58.0908 39.3651 58.0467 39.2863 57.968C39.2075 57.8894 39.1632 57.7828 39.1632 57.6716V55.3445H37.4506V57.6716C37.4506 57.7828 37.4063 57.8894 37.3276 57.968C37.2488 58.0467 37.1419 58.0908 37.0305 58.0908H36.6104C36.499 58.0908 36.3921 58.0467 36.3133 57.968C36.2346 57.8894 36.1903 57.7828 36.1903 57.6716V55.3445H34.4819V57.6716C34.4819 57.7828 34.4376 57.8894 34.3588 57.968C34.2801 58.0467 34.1732 58.0908 34.0618 58.0908H33.6417C33.5303 58.0908 33.4234 58.0467 33.3446 57.968C33.2658 57.8894 33.2216 57.7828 33.2216 57.6716V55.3445H31.1953C30.9485 55.3351 30.715 55.2306 30.5437 55.053C30.3725 54.8754 30.2768 54.6385 30.2768 54.392C30.2768 54.1455 30.3725 53.9087 30.5437 53.7311C30.715 53.5535 30.9485 53.449 31.1953 53.4395H75.0904C75.3372 53.449 75.5707 53.5535 75.742 53.7311C75.9132 53.9087 76.0089 54.1455 76.0089 54.392C76.0089 54.6385 75.9132 54.8754 75.742 55.053C75.5707 55.2306 75.3372 55.3351 75.0904 55.3445V55.3445ZM32.2021 51.3221V49.6296C32.2021 49.405 32.2915 49.1896 32.4507 49.0307C32.6098 48.8719 32.8257 48.7827 33.0507 48.7827H33.6865C33.7985 48.7817 33.9096 48.803 34.0134 48.8451C34.1172 48.8873 34.2115 48.9495 34.2911 49.0283C34.3706 49.107 34.4338 49.2007 34.4768 49.3039C34.5199 49.4071 34.5421 49.5178 34.5421 49.6296V51.3221C34.5421 51.5468 34.4527 51.7622 34.2935 51.921C34.1344 52.0799 33.9186 52.1691 33.6935 52.1691H33.0507C32.8257 52.1691 32.6098 52.0799 32.4507 51.921C32.2915 51.7622 32.2021 51.5468 32.2021 51.3221ZM35.808 51.3221V49.6296C35.8076 49.4063 35.8958 49.192 36.0532 49.0333C36.2106 48.8746 36.4245 48.7845 36.6482 48.7827H37.2854C37.5091 48.7845 37.723 48.8746 37.8804 49.0333C38.0378 49.192 38.126 49.4063 38.1256 49.6296V51.3221C38.126 51.5454 38.0378 51.7598 37.8804 51.9185C37.723 52.0772 37.5091 52.1673 37.2854 52.1691H36.6552C36.5434 52.1698 36.4325 52.1485 36.329 52.1062C36.2254 52.064 36.1313 52.0017 36.052 51.9229C35.9727 51.8442 35.9099 51.7506 35.867 51.6475C35.8242 51.5443 35.8022 51.4338 35.8024 51.3221H35.808ZM39.4125 51.3221V49.6296C39.4125 49.405 39.5019 49.1896 39.661 49.0307C39.8202 48.8719 40.036 48.7827 40.2611 48.7827H40.8969C41.1219 48.7827 41.3378 48.8719 41.4969 49.0307C41.6561 49.1896 41.7455 49.405 41.7455 49.6296V51.3221C41.7455 51.5468 41.6561 51.7622 41.4969 51.921C41.3378 52.0799 41.1219 52.1691 40.8969 52.1691H40.2611C40.036 52.1691 39.8202 52.0799 39.661 51.921C39.5019 51.7622 39.4125 51.5468 39.4125 51.3221ZM43.017 51.3221V49.6296C43.017 49.5184 43.0389 49.4083 43.0816 49.3055C43.1242 49.2028 43.1867 49.1094 43.2655 49.0307C43.3443 48.9521 43.4379 48.8897 43.5408 48.8471C43.6438 48.8046 43.7541 48.7827 43.8656 48.7827H44.5013C44.7264 48.7827 44.9423 48.8719 45.1014 49.0307C45.2605 49.1896 45.3499 49.405 45.3499 49.6296V51.3221C45.3499 51.5468 45.2605 51.7622 45.1014 51.921C44.9423 52.0799 44.7264 52.1691 44.5013 52.1691H43.8656C43.6405 52.1691 43.4247 52.0799 43.2655 51.921C43.1064 51.7622 43.017 51.5468 43.017 51.3221V51.3221ZM46.6215 51.3221V49.6296C46.6215 49.405 46.7109 49.1896 46.87 49.0307C47.0292 48.8719 47.245 48.7827 47.4701 48.7827H48.1058C48.2173 48.7827 48.3276 48.8046 48.4306 48.8471C48.5335 48.8897 48.6271 48.9521 48.7059 49.0307C48.7847 49.1094 48.8472 49.2028 48.8898 49.3055C48.9325 49.4083 48.9544 49.5184 48.9544 49.6296V51.3221C48.9544 51.4334 48.9325 51.5435 48.8898 51.6463C48.8472 51.749 48.7847 51.8424 48.7059 51.921C48.6271 51.9997 48.5335 52.0621 48.4306 52.1046C48.3276 52.1472 48.2173 52.1691 48.1058 52.1691H47.4701C47.245 52.1691 47.0292 52.0799 46.87 51.921C46.7109 51.7622 46.6215 51.5468 46.6215 51.3221V51.3221ZM50.2273 51.3221V49.6296C50.2272 49.5185 50.2489 49.4084 50.2914 49.3056C50.3339 49.2029 50.3963 49.1095 50.475 49.0308C50.5537 48.9522 50.6471 48.8897 50.75 48.8472C50.8529 48.8046 50.9632 48.7827 51.0746 48.7827H51.7117C51.9354 48.7845 52.1493 48.8746 52.3067 49.0333C52.4642 49.192 52.5523 49.4063 52.5519 49.6296V51.3221C52.5523 51.5454 52.4642 51.7598 52.3067 51.9185C52.1493 52.0772 51.9354 52.1673 51.7117 52.1691H51.0746C50.9631 52.1693 50.8526 52.1475 50.7496 52.105C50.6465 52.0625 50.5529 52.0001 50.4741 51.9215C50.3952 51.8428 50.3327 51.7493 50.2902 51.6465C50.2476 51.5436 50.2258 51.4334 50.2259 51.3221H50.2273ZM53.8318 51.3221V49.6296C53.8318 49.405 53.9212 49.1896 54.0804 49.0307C54.2395 48.8719 54.4554 48.7827 54.6804 48.7827H55.3162C55.5413 48.7827 55.7571 48.8719 55.9163 49.0307C56.0754 49.1896 56.1648 49.405 56.1648 49.6296V51.3221C56.1648 51.5468 56.0754 51.7622 55.9163 51.921C55.7571 52.0799 55.5413 52.1691 55.3162 52.1691H54.6804C54.4554 52.1691 54.2395 52.0799 54.0804 51.921C53.9212 51.7622 53.8318 51.5468 53.8318 51.3221V51.3221ZM57.4363 51.3221V49.6296C57.4363 49.405 57.5257 49.1896 57.6849 49.0307C57.844 48.8719 58.0599 48.7827 58.2849 48.7827H58.9207C59.1457 48.7827 59.3616 48.8719 59.5207 49.0307C59.6799 49.1896 59.7693 49.405 59.7693 49.6296V51.3221C59.7693 51.5468 59.6799 51.7622 59.5207 51.921C59.3616 52.0799 59.1457 52.1691 58.9207 52.1691H58.2849C58.0599 52.1691 57.844 52.0799 57.6849 51.921C57.5257 51.7622 57.4363 51.5468 57.4363 51.3221V51.3221ZM61.0422 51.3221V49.6296C61.042 49.5185 61.0638 49.4084 61.1063 49.3056C61.1488 49.2029 61.2112 49.1095 61.2898 49.0308C61.3685 48.9522 61.462 48.8897 61.5649 48.8472C61.6678 48.8046 61.778 48.7827 61.8894 48.7827H62.5266C62.6379 48.7827 62.7482 48.8046 62.8511 48.8472C62.954 48.8897 63.0474 48.9522 63.1261 49.0308C63.2048 49.1095 63.2672 49.2029 63.3097 49.3056C63.3522 49.4084 63.374 49.5185 63.3738 49.6296V51.3221C63.374 51.4333 63.3522 51.5434 63.3097 51.6462C63.2672 51.7489 63.2048 51.8423 63.1261 51.921C63.0474 51.9996 62.954 52.062 62.8511 52.1046C62.7482 52.1472 62.6379 52.1691 62.5266 52.1691H61.8894C61.778 52.1691 61.6678 52.1472 61.5649 52.1046C61.462 52.062 61.3685 51.9996 61.2898 51.921C61.2112 51.8423 61.1488 51.7489 61.1063 51.6462C61.0638 51.5434 61.042 51.4333 61.0422 51.3221ZM64.6467 51.3221V49.6296C64.6467 49.405 64.7361 49.1896 64.8952 49.0307C65.0544 48.8719 65.2702 48.7827 65.4953 48.7827H66.131C66.3561 48.7827 66.572 48.8719 66.7311 49.0307C66.8903 49.1896 66.9797 49.405 66.9797 49.6296V51.3221C66.9797 51.5468 66.8903 51.7622 66.7311 51.921C66.572 52.0799 66.3561 52.1691 66.131 52.1691H65.4897C65.2661 52.1669 65.0524 52.0767 64.8951 51.9181C64.7377 51.7595 64.6495 51.5453 64.6495 51.3221H64.6467ZM68.2512 51.3221V49.6296C68.2512 49.405 68.3406 49.1896 68.4997 49.0307C68.6589 48.8719 68.8747 48.7827 69.0998 48.7827H69.7355C69.9606 48.7827 70.1764 48.8719 70.3356 49.0307C70.4947 49.1896 70.5841 49.405 70.5841 49.6296V51.3221C70.5841 51.5468 70.4947 51.7622 70.3356 51.921C70.1764 52.0799 69.9606 52.1691 69.7355 52.1691H69.0998C68.8747 52.1691 68.6589 52.0799 68.4997 51.921C68.3406 51.7622 68.2512 51.5468 68.2512 51.3221ZM71.752 51.3221V49.6296C71.7518 49.5185 71.7736 49.4084 71.8161 49.3056C71.8586 49.2029 71.921 49.1095 71.9997 49.0308C72.0784 48.9522 72.1718 48.8897 72.2747 48.8472C72.3776 48.8046 72.4879 48.7827 72.5992 48.7827H73.2364C73.3478 48.7827 73.458 48.8046 73.5609 48.8472C73.6638 48.8897 73.7573 48.9522 73.836 49.0308C73.9146 49.1095 73.977 49.2029 74.0195 49.3056C74.062 49.4084 74.0838 49.5185 74.0836 49.6296V51.3221C74.0838 51.4333 74.062 51.5434 74.0195 51.6462C73.977 51.7489 73.9146 51.8423 73.836 51.921C73.7573 51.9996 73.6638 52.062 73.5609 52.1046C73.458 52.1472 73.3478 52.1691 73.2364 52.1691H72.5992C72.4877 52.1693 72.3773 52.1475 72.2743 52.105C72.1712 52.0625 72.0776 52.0001 71.9988 51.9215C71.9199 51.8428 71.8574 51.7493 71.8148 51.6465C71.7723 51.5436 71.7504 51.4334 71.7506 51.3221H71.752ZM75.0918 47.0901H31.1953C30.9485 47.0807 30.715 46.9762 30.5437 46.7986C30.3725 46.621 30.2768 46.3841 30.2768 46.1377C30.2768 45.8912 30.3725 45.6543 30.5437 45.4767C30.715 45.2991 30.9485 45.1946 31.1953 45.1852H75.0904C75.3372 45.1946 75.5707 45.2991 75.742 45.4767C75.9132 45.6543 76.0089 45.8912 76.0089 46.1377C76.0089 46.3841 75.9132 46.621 75.742 46.7986C75.5707 46.9762 75.3372 47.0807 75.0904 47.0901H75.0918Z" fill="url(#paint1_linear_362_5)"/>
<path d="M61.7314 68.8889C61.6958 68.8873 61.6602 68.8836 61.625 68.8777V77.3208H77.5329V68.8889H61.7314Z" fill="url(#paint2_linear_362_5)"/>
<path d="M44.6605 68.8777C44.6253 68.8836 44.5898 68.8873 44.5541 68.8889H28.7568V77.3208H44.6605V68.8777Z" fill="url(#paint3_linear_362_5)"/>
<path d="M61.7311 80.5297C61.6954 80.5281 61.6599 80.5244 61.6246 80.5185V80.9518C61.6246 81.906 61.2449 82.8212 60.569 83.4961C59.8931 84.171 58.9763 84.5503 58.0202 84.5507L55.6606 74C56.1726 73.5001 56.5238 72.8593 56.6693 72.1593C56.8148 71.4593 56.7481 70.7319 56.4776 70.07C56.2071 69.408 55.7452 68.8415 55.1507 68.4427C54.5563 68.0439 53.8562 67.8309 53.14 67.8309C52.4237 67.8309 51.7237 68.0439 51.1292 68.4427C50.5347 68.8415 50.0728 69.408 49.8023 70.07C49.5319 70.7319 49.4651 71.4593 49.6107 72.1593C49.7562 72.8593 50.1073 73.5001 50.6193 74L48.2654 84.5507C47.7919 84.5507 47.3231 84.4576 46.8857 84.2767C46.4483 84.0958 46.0508 83.8307 45.7161 83.4965C45.3814 83.1623 45.1159 82.7655 44.9349 82.3289C44.7538 81.8923 44.6607 81.4243 44.6609 80.9518V80.9364C44.6256 80.9418 44.5901 80.9451 44.5545 80.9462H29.2207C29.7937 82.6145 30.8744 84.0626 32.3119 85.0881C33.7495 86.1137 35.472 86.6656 37.2391 86.6667H69.0465C70.889 86.6663 72.6814 86.0673 74.1525 84.96C75.6237 83.8528 76.6936 82.2977 77.2007 80.5297H61.7311Z" fill="url(#paint4_linear_362_5)"/>
</g>
<defs>
<filter id="filter0_i_362_5" x="26" y="18" width="54.2861" height="68.6667" filterUnits="userSpaceOnUse" color-interpolation-filters="sRGB">
<feFlood flood-opacity="0" result="BackgroundImageFix"/>
<feBlend mode="normal" in="SourceGraphic" in2="BackgroundImageFix" result="shape"/>
<feColorMatrix in="SourceAlpha" type="matrix" values="0 0 0 0 0 0 0 0 0 0 0 0 0 0 0 0 0 0 127 0" result="hardAlpha"/>
<feOffset dy="-2"/>
<feGaussianBlur stdDeviation="3"/>
<feComposite in2="hardAlpha" operator="arithmetic" k2="-1" k3="1"/>
<feColorMatrix type="matrix" values="0 0 0 0 0.0208333 0 0 0 0 0.0208333 0 0 0 0 0.0208333 0 0 0 0.14 0"/>
<feBlend mode="normal" in2="shape" result="effect1_innerShadow_362_5"/>
</filter>
<linearGradient id="paint0_linear_362_5" x1="53.1429" y1="20" x2="53.1429" y2="39.6827" gradientUnits="userSpaceOnUse">
<stop stop-color="#44F5F9"/>
<stop offset="1" stop-color="#5E72E4"/>
</linearGradient>
<linearGradient id="paint1_linear_362_5" x1="53.1464" y1="39.6827" x2="53.1464" y2="66.1034" gradientUnits="userSpaceOnUse">
<stop stop-color="#44F5F9"/>
<stop offset="1" stop-color="#5E72E4"/>
</linearGradient>
<linearGradient id="paint2_linear_362_5" x1="69.579" y1="68.8777" x2="69.579" y2="77.3208" gradientUnits="userSpaceOnUse">
<stop stop-color="#44F5F9"/>
<stop offset="1" stop-color="#5E72E4"/>
</linearGradient>
<linearGradient id="paint3_linear_362_5" x1="36.7087" y1="68.8777" x2="36.7087" y2="77.3208" gradientUnits="userSpaceOnUse">
<stop stop-color="#44F5F9"/>
<stop offset="1" stop-color="#5E72E4"/>
</linearGradient>
<linearGradient id="paint4_linear_362_5" x1="53.2107" y1="67.8309" x2="53.2107" y2="86.6667" gradientUnits="userSpaceOnUse">
<stop stop-color="#44F5F9"/>
<stop offset="1" stop-color="#5E72E4"/>
</linearGradient>
<clipPath id="clip0_362_5">
<rect width="54.2857" height="66.6667" fill="white" transform="translate(26 20)"/>
</clipPath>
</defs>
</svg>
