<svg width="107" height="107" viewBox="0 0 107 107" fill="none" xmlns="http://www.w3.org/2000/svg">
<rect width="107" height="107" fill="#E7E8EA"/>
<path d="M28.222 36.294C30.89 36.294 32.833 36.874 34.051 38.034C35.2883 39.1747 35.907 40.7503 35.907 42.761C35.907 43.6697 35.7717 44.5397 35.501 45.371C35.2303 46.183 34.776 46.9177 34.138 47.575C33.5193 48.213 32.6977 48.7157 31.673 49.083C30.6483 49.4503 29.382 49.634 27.874 49.634H25.989V57H21.61V36.294H28.222ZM27.99 39.89H25.989V46.038H27.439C28.2703 46.038 28.9857 45.9317 29.585 45.719C30.1843 45.5063 30.6483 45.168 30.977 44.704C31.3057 44.24 31.47 43.6407 31.47 42.906C31.47 41.8813 31.1897 41.1273 30.629 40.644C30.0683 40.1413 29.1887 39.89 27.99 39.89ZM46.432 36.294C49.1 36.294 51.043 36.874 52.261 38.034C53.4983 39.1747 54.117 40.7503 54.117 42.761C54.117 43.6697 53.9816 44.5397 53.711 45.371C53.4403 46.183 52.986 46.9177 52.348 47.575C51.7293 48.213 50.9076 48.7157 49.883 49.083C48.8583 49.4503 47.592 49.634 46.084 49.634H44.199V57H39.82V36.294H46.432ZM46.2 39.89H44.199V46.038H45.649C46.4803 46.038 47.1956 45.9317 47.795 45.719C48.3943 45.5063 48.8583 45.168 49.187 44.704C49.5156 44.24 49.68 43.6407 49.68 42.906C49.68 41.8813 49.3996 41.1273 48.839 40.644C48.2783 40.1413 47.3986 39.89 46.2 39.89ZM65.7729 57H56.3479V54.506L58.8709 53.346V39.948L56.3479 38.788V36.294H65.7729V38.788L63.2499 39.948V53.346L65.7729 54.506V57ZM86.4694 46.444C86.4694 48.764 86.0247 50.707 85.1354 52.273C84.2461 53.839 82.9507 55.0183 81.2494 55.811C79.5674 56.6037 77.5374 57 75.1594 57H69.3014V36.294H75.7974C77.9627 36.294 79.8381 36.6807 81.4234 37.454C83.0281 38.2273 84.2654 39.368 85.1354 40.876C86.0247 42.3647 86.4694 44.2207 86.4694 46.444ZM81.9164 46.56C81.9164 45.0327 81.6941 43.776 81.2494 42.79C80.8047 41.804 80.1377 41.079 79.2484 40.615C78.3784 40.1317 77.3054 39.89 76.0294 39.89H73.6804V53.375H75.5654C77.7114 53.375 79.3064 52.8047 80.3504 51.664C81.3944 50.5233 81.9164 48.822 81.9164 46.56Z" fill="url(#paint0_linear_363_32)"/>
<path d="M22 61H45V62H22V61Z" fill="url(#paint1_linear_363_32)"/>
<path d="M25 64H45V65H25V64Z" fill="url(#paint2_linear_363_32)"/>
<path d="M21 67H45V68H21V67Z" fill="url(#paint3_linear_363_32)"/>
<path d="M43.26 68L44.77 60.86H46.85C47.3033 60.86 47.7 60.9133 48.04 61.02C48.38 61.1267 48.6433 61.2967 48.83 61.53C49.0167 61.7633 49.11 62.07 49.11 62.45C49.11 62.7767 49.0467 63.0633 48.92 63.31C48.8 63.5567 48.6233 63.7633 48.39 63.93C48.1633 64.09 47.8833 64.2067 47.55 64.28V64.32C47.8767 64.4067 48.1367 64.5667 48.33 64.8C48.5233 65.0267 48.62 65.3167 48.62 65.67C48.62 66.21 48.4967 66.6533 48.25 67C48.0033 67.34 47.6667 67.5933 47.24 67.76C46.82 67.92 46.3433 68 45.81 68H43.26ZM45.89 66.75C46.1367 66.75 46.35 66.71 46.53 66.63C46.71 66.55 46.85 66.43 46.95 66.27C47.0567 66.11 47.11 65.9133 47.11 65.68C47.11 65.4267 47.0367 65.2333 46.89 65.1C46.7433 64.96 46.52 64.89 46.22 64.89H45.41L45.01 66.75H45.89ZM46.39 63.69C46.63 63.69 46.8367 63.66 47.01 63.6C47.19 63.5333 47.3267 63.4333 47.42 63.3C47.52 63.16 47.57 62.9833 47.57 62.77C47.57 62.55 47.5 62.3833 47.36 62.27C47.2267 62.1567 47.02 62.1 46.74 62.1H46L45.66 63.69H46.39ZM52.4512 68.1C51.8712 68.1 51.3845 67.9867 50.9912 67.76C50.5978 67.5333 50.3012 67.2167 50.1012 66.81C49.9012 66.4033 49.8012 65.9267 49.8012 65.38C49.8012 65.0067 49.8345 64.6367 49.9012 64.27C49.9678 63.8967 50.0678 63.5367 50.2012 63.19C50.3412 62.8433 50.5112 62.5233 50.7112 62.23C50.9178 61.9367 51.1612 61.68 51.4412 61.46C51.7212 61.2333 52.0378 61.06 52.3912 60.94C52.7512 60.8133 53.1478 60.75 53.5812 60.75C54.4478 60.75 55.0978 60.9933 55.5312 61.48C55.9712 61.9667 56.1912 62.6133 56.1912 63.42C56.1912 63.8067 56.1578 64.19 56.0912 64.57C56.0312 64.95 55.9345 65.3167 55.8012 65.67C55.6678 66.0167 55.4978 66.34 55.2912 66.64C55.0912 66.9333 54.8512 67.19 54.5712 67.41C54.2978 67.6233 53.9845 67.7933 53.6312 67.92C53.2778 68.04 52.8845 68.1 52.4512 68.1ZM52.5612 66.83C52.7545 66.83 52.9412 66.7967 53.1212 66.73C53.3012 66.6567 53.4678 66.5533 53.6212 66.42C53.7812 66.28 53.9245 66.1133 54.0512 65.92C54.1778 65.72 54.2878 65.4967 54.3812 65.25C54.4745 64.9967 54.5445 64.72 54.5912 64.42C54.6445 64.12 54.6712 63.8 54.6712 63.46C54.6712 63.02 54.5678 62.67 54.3612 62.41C54.1612 62.1433 53.8612 62.01 53.4612 62.01C53.2545 62.01 53.0578 62.05 52.8712 62.13C52.6845 62.21 52.5112 62.3267 52.3512 62.48C52.1978 62.6267 52.0545 62.8033 51.9212 63.01C51.7945 63.2167 51.6845 63.4467 51.5912 63.7C51.5045 63.9467 51.4378 64.2133 51.3912 64.5C51.3445 64.78 51.3212 65.0733 51.3212 65.38C51.3212 65.6933 51.3678 65.96 51.4612 66.18C51.5612 66.3933 51.7045 66.5567 51.8912 66.67C52.0778 66.7767 52.3012 66.83 52.5612 66.83ZM56.7659 68L58.2759 60.86H60.0159L61.6759 66.12H61.7159C61.7359 66.0133 61.7559 65.8833 61.7759 65.73C61.8025 65.5767 61.8292 65.4133 61.8559 65.24C61.8892 65.06 61.9225 64.8833 61.9559 64.71C61.9892 64.5367 62.0192 64.38 62.0459 64.24L62.7659 60.86H64.1059L62.5959 68H60.9259L59.1859 62.6H59.1359C59.1292 62.64 59.1159 62.7367 59.0959 62.89C59.0759 63.0367 59.0492 63.2133 59.0159 63.42C58.9892 63.6267 58.9559 63.84 58.9159 64.06C58.8825 64.2733 58.8492 64.4667 58.8159 64.64L58.1059 68H56.7659ZM64.3147 68L65.8247 60.86H69.8147L69.5547 62.1H67.0547L66.7247 63.67H69.0547L68.7847 64.91H66.4547L66.0647 66.75H68.5647L68.3047 68H64.3147ZM69.7346 68L71.2446 60.86H73.3246C73.7779 60.86 74.1746 60.9133 74.5146 61.02C74.8546 61.1267 75.1179 61.2967 75.3046 61.53C75.4913 61.7633 75.5846 62.07 75.5846 62.45C75.5846 62.7767 75.5213 63.0633 75.3946 63.31C75.2746 63.5567 75.0979 63.7633 74.8646 63.93C74.6379 64.09 74.3579 64.2067 74.0246 64.28V64.32C74.3513 64.4067 74.6113 64.5667 74.8046 64.8C74.9979 65.0267 75.0946 65.3167 75.0946 65.67C75.0946 66.21 74.9713 66.6533 74.7246 67C74.4779 67.34 74.1413 67.5933 73.7146 67.76C73.2946 67.92 72.8179 68 72.2846 68H69.7346ZM72.3646 66.75C72.6113 66.75 72.8246 66.71 73.0046 66.63C73.1846 66.55 73.3246 66.43 73.4246 66.27C73.5313 66.11 73.5846 65.9133 73.5846 65.68C73.5846 65.4267 73.5113 65.2333 73.3646 65.1C73.2179 64.96 72.9946 64.89 72.6946 64.89H71.8846L71.4846 66.75H72.3646ZM72.8646 63.69C73.1046 63.69 73.3113 63.66 73.4846 63.6C73.6646 63.5333 73.8013 63.4333 73.8946 63.3C73.9946 63.16 74.0446 62.9833 74.0446 62.77C74.0446 62.55 73.9746 62.3833 73.8346 62.27C73.7013 62.1567 73.4946 62.1 73.2146 62.1H72.4746L72.1346 63.69H72.8646ZM78.9258 68.1C78.3458 68.1 77.8591 67.9867 77.4658 67.76C77.0724 67.5333 76.7758 67.2167 76.5758 66.81C76.3758 66.4033 76.2758 65.9267 76.2758 65.38C76.2758 65.0067 76.3091 64.6367 76.3758 64.27C76.4424 63.8967 76.5424 63.5367 76.6758 63.19C76.8158 62.8433 76.9858 62.5233 77.1858 62.23C77.3924 61.9367 77.6358 61.68 77.9158 61.46C78.1958 61.2333 78.5124 61.06 78.8658 60.94C79.2258 60.8133 79.6224 60.75 80.0558 60.75C80.9224 60.75 81.5724 60.9933 82.0058 61.48C82.4458 61.9667 82.6658 62.6133 82.6658 63.42C82.6658 63.8067 82.6324 64.19 82.5658 64.57C82.5058 64.95 82.4091 65.3167 82.2758 65.67C82.1424 66.0167 81.9724 66.34 81.7658 66.64C81.5658 66.9333 81.3258 67.19 81.0458 67.41C80.7724 67.6233 80.4591 67.7933 80.1058 67.92C79.7524 68.04 79.3591 68.1 78.9258 68.1ZM79.0358 66.83C79.2291 66.83 79.4158 66.7967 79.5958 66.73C79.7758 66.6567 79.9424 66.5533 80.0958 66.42C80.2558 66.28 80.3991 66.1133 80.5258 65.92C80.6524 65.72 80.7624 65.4967 80.8558 65.25C80.9491 64.9967 81.0191 64.72 81.0658 64.42C81.1191 64.12 81.1458 63.8 81.1458 63.46C81.1458 63.02 81.0424 62.67 80.8358 62.41C80.6358 62.1433 80.3358 62.01 79.9358 62.01C79.7291 62.01 79.5324 62.05 79.3458 62.13C79.1591 62.21 78.9858 62.3267 78.8258 62.48C78.6724 62.6267 78.5291 62.8033 78.3958 63.01C78.2691 63.2167 78.1591 63.4467 78.0658 63.7C77.9791 63.9467 77.9124 64.2133 77.8658 64.5C77.8191 64.78 77.7958 65.0733 77.7958 65.38C77.7958 65.6933 77.8424 65.96 77.9358 66.18C78.0358 66.3933 78.1791 66.5567 78.3658 66.67C78.5524 66.7767 78.7758 66.83 79.0358 66.83ZM83.2405 68L84.7505 60.86H86.2405L84.9905 66.75H87.4905L87.2305 68H83.2405Z" fill="url(#paint4_linear_363_32)"/>
<defs>
<linearGradient id="paint0_linear_363_32" x1="54" y1="26" x2="54" y2="65" gradientUnits="userSpaceOnUse">
<stop stop-color="#0ADCFC"/>
<stop offset="1" stop-color="#008DE9"/>
</linearGradient>
<linearGradient id="paint1_linear_363_32" x1="33.5" y1="61" x2="33.5" y2="62" gradientUnits="userSpaceOnUse">
<stop stop-color="#0ADCFC"/>
<stop offset="1" stop-color="#008DE9"/>
</linearGradient>
<linearGradient id="paint2_linear_363_32" x1="35" y1="64" x2="35" y2="65" gradientUnits="userSpaceOnUse">
<stop stop-color="#0ADCFC"/>
<stop offset="1" stop-color="#008DE9"/>
</linearGradient>
<linearGradient id="paint3_linear_363_32" x1="33" y1="67" x2="33" y2="68" gradientUnits="userSpaceOnUse">
<stop stop-color="#0ADCFC"/>
<stop offset="1" stop-color="#008DE9"/>
</linearGradient>
<linearGradient id="paint4_linear_363_32" x1="66" y1="57" x2="66" y2="71" gradientUnits="userSpaceOnUse">
<stop stop-color="#0ADCFC"/>
<stop offset="1" stop-color="#008DE9"/>
</linearGradient>
</defs>
</svg>
